<?xml version="1.0" encoding="UTF-8" standalone="no"?>
<!DOCTYPE svg PUBLIC "-//W3C//DTD SVG 1.0//EN"
 "http://www.w3.org/TR/2001/REC-SVG-20010904/DTD/svg10.dtd">
<!-- Generated by dot version 2.2.1 (Mon May  9 08:37:06 UTC 2005)
     For user: (ulisses) ,,,   Title: Mp2    Pages: 1 -->
<svg width="445pt" height="444pt"
 viewBox = "-1 -1 444 443"
 xmlns="http://www.w3.org/2000/svg">
<g id="graph0" class="graph" transform = "scale(0.218956)"
 style="font-family:Times-Roman;font-size:14.00;">
<title>Mp2</title>
<text text-anchor="middle" style="font-size:45.00;" x="996" y="1891">&#45; MP2 &#45;</text>
<text text-anchor="middle" style="font-size:45.00;" x="996" y="1997">Parte da cidade de braga</text>
<g id="node1" class="node"><title>node1</title>
<ellipse cx="707" cy="56" rx="17" ry="17" style="fill:gray;stroke:gray;"/>
<text text-anchor="middle" style="font-family:Helvetica-Outline;" x="707" y="61">0</text>
</g>
<g id="node2" class="node"><title>node2</title>
<ellipse cx="707" cy="148" rx="17" ry="17" style="fill:gray;stroke:gray;"/>
<text text-anchor="middle" style="font-family:Helvetica-Outline;" x="707" y="153">3</text>
</g>
<g id="edge2" class="edge"><title>node1&#45;&#45;node2</title>
<path style="fill:none;stroke:black;" d="M707,73C707,90 707,114 707,131"/>
<text text-anchor="middle" x="763" y="104">Rua de Sao Vicente</text>
</g>
<g id="node4" class="node"><title>node3</title>
<ellipse cx="583" cy="246" rx="21" ry="22" style="fill:gray;stroke:gray;"/>
<text text-anchor="middle" style="font-family:Helvetica-Outline;" x="583" y="251">10</text>
</g>
<g id="edge4" class="edge"><title>node2&#45;&#45;node3</title>
<path style="fill:none;stroke:black;" d="M693,159C670,177 625,212 600,232"/>
<text text-anchor="middle" x="728" y="202">Avenida da Liberdade_0</text>
</g>
<g id="node8" class="node"><title>node6</title>
<ellipse cx="951" cy="246" rx="21" ry="22" style="fill:gray;stroke:gray;"/>
<text text-anchor="middle" style="font-family:Helvetica-Outline;" x="951" y="251">12</text>
</g>
<g id="edge8" class="edge"><title>node2&#45;&#45;node6</title>
<path style="fill:none;stroke:black;" d="M723,154C766,171 882,218 930,238"/>
<text text-anchor="middle" x="893" y="202">Rua D. Pedro V</text>
</g>
<g id="node6" class="node"><title>node4</title>
<ellipse cx="390" cy="344" rx="17" ry="17" style="fill:gray;stroke:gray;"/>
<text text-anchor="middle" style="font-family:Helvetica-Outline;" x="390" y="349">3</text>
</g>
<g id="edge6" class="edge"><title>node3&#45;&#45;node4</title>
<path style="fill:none;stroke:black;" d="M562,254C543,262 513,275 488,287 458,303 424,323 405,335"/>
<text text-anchor="middle" x="564" y="300">Avenida da Liberdade_1</text>
</g>
<g id="node22" class="node"><title>node7</title>
<ellipse cx="696" cy="344" rx="21" ry="22" style="fill:gray;stroke:gray;"/>
<text text-anchor="middle" style="font-family:Helvetica-Outline;" x="696" y="349">18</text>
</g>
<g id="edge22" class="edge"><title>node3&#45;&#45;node7</title>
<path style="fill:none;stroke:black;" d="M600,261C622,279 658,311 679,329"/>
<text text-anchor="middle" x="701" y="300">Avenida Joao XXI</text>
</g>
<g id="node10" class="node"><title>node9</title>
<ellipse cx="1141" cy="344" rx="21" ry="22" style="fill:gray;stroke:gray;"/>
<text text-anchor="middle" style="font-family:Helvetica-Outline;" x="1141" y="349">15</text>
</g>
<g id="edge10" class="edge"><title>node6&#45;&#45;node9</title>
<path style="fill:none;stroke:black;" d="M971,256C1008,275 1085,315 1121,334"/>
<text text-anchor="middle" x="1123" y="300">Rua Nova Santa Cruz_0</text>
</g>
<g id="edge26" class="edge"><title>node6&#45;&#45;node7</title>
<path style="fill:none;stroke:black;" d="M930,254C882,272 765,317 717,336"/>
<text text-anchor="middle" x="935" y="300">Avenida Padre Julio Fragata_1</text>
</g>
<g id="node12" class="node"><title>node19</title>
<ellipse cx="1029" cy="442" rx="21" ry="22" style="fill:gray;stroke:gray;"/>
<text text-anchor="middle" style="font-family:Helvetica-Outline;" x="1029" y="447">26</text>
</g>
<g id="edge12" class="edge"><title>node9&#45;&#45;node19</title>
<path style="fill:none;stroke:black;" d="M1124,359C1103,377 1067,409 1046,427"/>
<text text-anchor="middle" x="1161" y="398">Rua Nova Santa Cruz_1</text>
</g>
<g id="node32" class="node"><title>node10</title>
<ellipse cx="1274" cy="442" rx="21" ry="22" style="fill:gray;stroke:gray;"/>
<text text-anchor="middle" style="font-family:Helvetica-Outline;" x="1274" y="447">24</text>
</g>
<g id="edge32" class="edge"><title>node9&#45;&#45;node10</title>
<path style="fill:none;stroke:black;" d="M1162,350C1182,356 1212,368 1233,385 1245,395 1256,410 1263,422"/>
<text text-anchor="middle" x="1295" y="398">Rua da Fabrica_0</text>
</g>
<g id="node14" class="node"><title>node18</title>
<ellipse cx="1153" cy="638" rx="21" ry="22" style="fill:gray;stroke:gray;"/>
<text text-anchor="middle" style="font-family:Helvetica-Outline;" x="1153" y="643">28</text>
</g>
<g id="edge14" class="edge"><title>node19&#45;&#45;node18</title>
<path style="fill:none;stroke:black;" d="M1018,462C1006,488 990,532 1010,563 1036,607 1098,627 1131,634"/>
<text text-anchor="middle" x="1077" y="545">Rua Nova Santa Cruz_2</text>
</g>
<g id="node51" class="node"><title>node20</title>
<ellipse cx="1176" cy="540" rx="21" ry="22" style="fill:gray;stroke:gray;"/>
<text text-anchor="middle" style="font-family:Helvetica-Outline;" x="1176" y="545">27</text>
</g>
<g id="edge54" class="edge"><title>node19&#45;&#45;node20</title>
<path style="fill:none;stroke:black;" d="M1048,454C1076,473 1129,509 1158,528"/>
<text text-anchor="middle" x="1172" y="496">Rua Quinta da armada</text>
</g>
<g id="node16" class="node"><title>node32</title>
<ellipse cx="1153" cy="736" rx="21" ry="22" style="fill:gray;stroke:gray;"/>
<text text-anchor="middle" style="font-family:Helvetica-Outline;" x="1153" y="741">28</text>
</g>
<g id="edge16" class="edge"><title>node18&#45;&#45;node32</title>
<path style="fill:none;stroke:black;" d="M1153,661C1153,677 1153,698 1153,713"/>
<text text-anchor="middle" x="1220" y="692">Rua Nova Santa Cruz_3</text>
</g>
<g id="node18" class="node"><title>node21</title>
<ellipse cx="1094" cy="834" rx="21" ry="22" style="fill:gray;stroke:gray;"/>
<text text-anchor="middle" style="font-family:Helvetica-Outline;" x="1094" y="839">29</text>
</g>
<g id="edge18" class="edge"><title>node32&#45;&#45;node21</title>
<path style="fill:none;stroke:black;" d="M1141,755C1131,772 1116,797 1106,815"/>
<text text-anchor="middle" x="1195" y="790">Rua Nova Santa Cruz_4</text>
</g>
<g id="node49" class="node"><title>node33</title>
<ellipse cx="1397" cy="834" rx="21" ry="22" style="fill:gray;stroke:gray;"/>
<text text-anchor="middle" style="font-family:Helvetica-Outline;" x="1397" y="839">29</text>
</g>
<g id="edge58" class="edge"><title>node32&#45;&#45;node33</title>
<path style="fill:none;stroke:black;" d="M1174,743C1197,751 1234,765 1267,777 1306,793 1351,813 1377,825"/>
<text text-anchor="middle" x="1335" y="790">Rua Lusiada</text>
</g>
<g id="node20" class="node"><title>node25</title>
<ellipse cx="1094" cy="932" rx="21" ry="22" style="fill:gray;stroke:gray;"/>
<text text-anchor="middle" style="font-family:Helvetica-Outline;" x="1094" y="937">38</text>
</g>
<g id="edge20" class="edge"><title>node21&#45;&#45;node25</title>
<path style="fill:none;stroke:black;" d="M1094,857C1094,873 1094,894 1094,909"/>
<text text-anchor="middle" x="1161" y="888">Rua Nova Santa Cruz_5</text>
</g>
<g id="node55" class="node"><title>node22</title>
<ellipse cx="1583" cy="932" rx="21" ry="22" style="fill:gray;stroke:gray;"/>
<text text-anchor="middle" style="font-family:Helvetica-Outline;" x="1583" y="937">31</text>
</g>
<g id="edge60" class="edge"><title>node21&#45;&#45;node22</title>
<path style="fill:none;stroke:black;" d="M1116,838C1196,854 1480,911 1561,928"/>
<text text-anchor="middle" x="1426" y="888">Rua David Costa_0</text>
</g>
<g id="node41" class="node"><title>node34</title>
<ellipse cx="1094" cy="1030" rx="21" ry="22" style="fill:gray;stroke:gray;"/>
<text text-anchor="middle" style="font-family:Helvetica-Outline;" x="1094" y="1035">41</text>
</g>
<g id="edge78" class="edge"><title>node25&#45;&#45;node34</title>
<path style="fill:none;stroke:black;" d="M1094,955C1094,971 1094,992 1094,1007"/>
<text text-anchor="middle" x="1148" y="986">Rua Vasco Ferreira</text>
</g>
<g id="node61" class="node"><title>node26</title>
<ellipse cx="1298" cy="1030" rx="21" ry="22" style="fill:gray;stroke:gray;"/>
<text text-anchor="middle" style="font-family:Helvetica-Outline;" x="1298" y="1035">33</text>
</g>
<g id="edge66" class="edge"><title>node25&#45;&#45;node26</title>
<path style="fill:none;stroke:black;" d="M1116,939C1138,946 1175,958 1206,973 1233,987 1261,1005 1280,1017"/>
<text text-anchor="middle" x="1310" y="986">Rua Ulisses da Monhe Costa</text>
</g>
<g id="node63" class="node"><title>node27</title>
<ellipse cx="881" cy="1030" rx="21" ry="22" style="fill:gray;stroke:gray;"/>
<text text-anchor="middle" style="font-family:Helvetica-Outline;" x="881" y="1035">35</text>
</g>
<g id="edge68" class="edge"><title>node25&#45;&#45;node27</title>
<path style="fill:none;stroke:black;" d="M1073,938C1048,945 1008,958 975,973 948,986 918,1005 899,1017"/>
<text text-anchor="middle" x="1038" y="986">Rua Estrada Nova_0</text>
</g>
<g id="node27" class="node"><title>node8</title>
<ellipse cx="325" cy="442" rx="21" ry="22" style="fill:gray;stroke:gray;"/>
<text text-anchor="middle" style="font-family:Helvetica-Outline;" x="325" y="447">54</text>
</g>
<g id="edge28" class="edge"><title>node7&#45;&#45;node8</title>
<path style="fill:none;stroke:black;" d="M674,349C641,356 575,371 520,385 457,402 382,424 346,435"/>
<text text-anchor="middle" x="629" y="398">Rua Frei Bartolomeu dos Martires</text>
</g>
<g id="node34" class="node"><title>node11</title>
<ellipse cx="761" cy="540" rx="21" ry="22" style="fill:gray;stroke:gray;"/>
<text text-anchor="middle" style="font-family:Helvetica-Outline;" x="761" y="545">19</text>
</g>
<g id="edge38" class="edge"><title>node7&#45;&#45;node11</title>
<path style="fill:none;stroke:black;" d="M707,364C710,371 713,378 716,385 734,431 749,488 756,518"/>
<text text-anchor="middle" x="813" y="447">Avenida Joao Paulo II_0</text>
</g>
<g id="node24" class="node"><title>node5</title>
<ellipse cx="1006" cy="148" rx="21" ry="22" style="fill:gray;stroke:gray;"/>
<text text-anchor="middle" style="font-family:Helvetica-Outline;" x="1006" y="153">11</text>
</g>
<g id="edge24" class="edge"><title>node5&#45;&#45;node6</title>
<path style="fill:none;stroke:black;" d="M995,168C985,185 972,209 962,226"/>
<text text-anchor="middle" x="1068" y="202">Avenida Padre Julio Fragata_0</text>
</g>
<g id="node29" class="node"><title>node13</title>
<ellipse cx="303" cy="540" rx="21" ry="22" style="fill:gray;stroke:gray;"/>
<text text-anchor="middle" style="font-family:Helvetica-Outline;" x="303" y="545">55</text>
</g>
<g id="edge110" class="edge"><title>node8&#45;&#45;node13</title>
<path style="fill:none;stroke:black;" d="M320,464C317,480 312,502 308,518"/>
<text text-anchor="middle" x="400" y="496">Avenida Dr Antonio Palha_0</text>
</g>
<g id="node30" class="node"><title>node14</title>
<ellipse cx="39" cy="638" rx="21" ry="22" style="fill:gray;stroke:gray;"/>
<text text-anchor="middle" style="font-family:Helvetica-Outline;" x="39" y="643">15</text>
</g>
<g id="edge30" class="edge"><title>node13&#45;&#45;node14</title>
<path style="fill:none;stroke:black;" d="M281,542C246,546 175,557 120,581 96,592 72,610 56,623"/>
<text text-anchor="middle" x="191" y="594">Rua Pascoal Fernandes</text>
</g>
<g id="node36" class="node"><title>node12</title>
<ellipse cx="569" cy="638" rx="21" ry="22" style="fill:gray;stroke:gray;"/>
<text text-anchor="middle" style="font-family:Helvetica-Outline;" x="569" y="643">22</text>
</g>
<g id="edge44" class="edge"><title>node13&#45;&#45;node12</title>
<path style="fill:none;stroke:black;" d="M324,548C374,566 499,612 548,630"/>
<text text-anchor="middle" x="519" y="594">Rua Antonio Maniz_0</text>
</g>
<g id="node88" class="node"><title>node40</title>
<ellipse cx="367" cy="1520" rx="21" ry="22" style="fill:gray;stroke:gray;"/>
<text text-anchor="middle" style="font-family:Helvetica-Outline;" x="367" y="1525">56</text>
</g>
<g id="edge112" class="edge"><title>node13&#45;&#45;node40</title>
<path style="fill:none;stroke:black;" d="M290,559C279,578 263,609 263,638 263,638 263,638 263,1422 263,1468 316,1498 346,1512"/>
<text text-anchor="middle" x="345" y="1035">Avenida Dr Antonio Palha_1</text>
</g>
<g id="edge34" class="edge"><title>node10&#45;&#45;node11</title>
<path style="fill:none;stroke:black;" d="M1267,463C1261,476 1252,491 1239,499 1205,520 924,513 884,517 848,522 807,530 783,535"/>
<text text-anchor="middle" x="1304" y="496">Rua da Fabrica_1</text>
</g>
<g id="node47" class="node"><title>node17</title>
<ellipse cx="1454" cy="540" rx="21" ry="22" style="fill:gray;stroke:gray;"/>
<text text-anchor="middle" style="font-family:Helvetica-Outline;" x="1454" y="545">27</text>
</g>
<g id="edge50" class="edge"><title>node10&#45;&#45;node17</title>
<path style="fill:none;stroke:black;" d="M1295,450C1314,457 1344,470 1369,483 1393,496 1419,515 1436,527"/>
<text text-anchor="middle" x="1467" y="496">Rua Monsenhor Ferreira_0</text>
</g>
<g id="edge36" class="edge"><title>node11&#45;&#45;node12</title>
<path style="fill:none;stroke:black;" d="M741,550C704,569 625,609 589,628"/>
<text text-anchor="middle" x="734" y="594">Rua da Fabrica_2</text>
</g>
<g id="node39" class="node"><title>node16</title>
<ellipse cx="799" cy="834" rx="21" ry="22" style="fill:gray;stroke:gray;"/>
<text text-anchor="middle" style="font-family:Helvetica-Outline;" x="799" y="839">24</text>
</g>
<g id="edge40" class="edge"><title>node11&#45;&#45;node16</title>
<path style="fill:none;stroke:black;" d="M775,558C779,565 784,573 786,581 812,663 806,766 802,811"/>
<text text-anchor="middle" x="876" y="692">Avenida Joao Paulo II_1</text>
</g>
<g id="node44" class="node"><title>node15</title>
<ellipse cx="572" cy="736" rx="21" ry="22" style="fill:gray;stroke:gray;"/>
<text text-anchor="middle" style="font-family:Helvetica-Outline;" x="572" y="741">50</text>
</g>
<g id="edge46" class="edge"><title>node12&#45;&#45;node15</title>
<path style="fill:none;stroke:black;" d="M570,661C571,677 571,698 571,713"/>
<text text-anchor="middle" x="635" y="692">Rua Antonio Maniz_1</text>
</g>
<g id="edge42" class="edge"><title>node16&#45;&#45;node34</title>
<path style="fill:none;stroke:black;" d="M811,853C834,886 885,953 944,989 985,1014 1041,1024 1072,1028"/>
<text text-anchor="middle" x="968" y="937">Avenida Joao Paulo II_2</text>
</g>
<g id="node74" class="node"><title>node35</title>
<ellipse cx="1731" cy="1128" rx="21" ry="22" style="fill:gray;stroke:gray;"/>
<text text-anchor="middle" style="font-family:Helvetica-Outline;" x="1731" y="1133">40</text>
</g>
<g id="edge80" class="edge"><title>node34&#45;&#45;node35</title>
<path style="fill:none;stroke:black;" d="M1116,1032C1117,1032 1117,1032 1118,1032 1184,1040 1200,1046 1267,1053 1368,1065 1395,1055 1496,1071 1576,1084 1669,1110 1710,1122"/>
<text text-anchor="middle" x="1613" y="1084">Rua do Enterro</text>
</g>
<g id="node76" class="node"><title>node37</title>
<ellipse cx="1343" cy="1128" rx="21" ry="22" style="fill:gray;stroke:gray;"/>
<text text-anchor="middle" style="font-family:Helvetica-Outline;" x="1343" y="1133">41</text>
</g>
<g id="edge82" class="edge"><title>node34&#45;&#45;node37</title>
<path style="fill:none;stroke:black;" d="M1116,1035C1144,1042 1194,1055 1235,1071 1267,1085 1303,1104 1324,1117"/>
<text text-anchor="middle" x="1378" y="1084">Avenida General Carrilho da Silva Pinto</text>
</g>
<g id="node78" class="node"><title>node36</title>
<ellipse cx="1094" cy="1128" rx="21" ry="22" style="fill:gray;stroke:gray;"/>
<text text-anchor="middle" style="font-family:Helvetica-Outline;" x="1094" y="1133">44</text>
</g>
<g id="edge84" class="edge"><title>node34&#45;&#45;node36</title>
<path style="fill:none;stroke:black;" d="M1094,1053C1094,1069 1094,1090 1094,1105"/>
<text text-anchor="middle" x="1162" y="1084">Estrada do Bom Jesus_0</text>
</g>
<g id="edge48" class="edge"><title>node15&#45;&#45;node16</title>
<path style="fill:none;stroke:black;" d="M592,746C616,758 658,778 695,793 724,805 757,818 778,826"/>
<text text-anchor="middle" x="741" y="790">Rua da Rodovia</text>
</g>
<g id="node94" class="node"><title>node39</title>
<ellipse cx="898" cy="1324" rx="21" ry="22" style="fill:gray;stroke:gray;"/>
<text text-anchor="middle" style="font-family:Helvetica-Outline;" x="898" y="1329">51</text>
</g>
<g id="edge102" class="edge"><title>node15&#45;&#45;node39</title>
<path style="fill:none;stroke:black;" d="M572,759C572,779 572,808 572,834 572,834 572,834 572,1226 572,1249 597,1242 618,1249 729,1288 774,1245 876,1301 879,1303 881,1304 884,1307"/>
<text text-anchor="middle" x="652" y="1035">Rua Luis Antonio Correia_0</text>
</g>
<g id="edge56" class="edge"><title>node17&#45;&#45;node18</title>
<path style="fill:none;stroke:black;" d="M1433,547C1377,565 1229,613 1174,631"/>
<text text-anchor="middle" x="1358" y="594">Rua Kefro</text>
</g>
<g id="edge52" class="edge"><title>node17&#45;&#45;node33</title>
<path style="fill:none;stroke:black;" d="M1450,562C1439,616 1412,757 1401,812"/>
<text text-anchor="middle" x="1501" y="692">Rua Monsenhor Ferreira_1</text>
</g>
<g id="node57" class="node"><title>node23</title>
<ellipse cx="1818" cy="1030" rx="21" ry="22" style="fill:gray;stroke:gray;"/>
<text text-anchor="middle" style="font-family:Helvetica-Outline;" x="1818" y="1035">31</text>
</g>
<g id="edge62" class="edge"><title>node22&#45;&#45;node23</title>
<path style="fill:none;stroke:black;" d="M1604,937C1631,944 1677,957 1715,973 1746,986 1779,1006 1799,1018"/>
<text text-anchor="middle" x="1798" y="986">Rua David Costa_1</text>
</g>
<g id="node59" class="node"><title>node24</title>
<ellipse cx="1583" cy="1030" rx="21" ry="22" style="fill:gray;stroke:gray;"/>
<text text-anchor="middle" style="font-family:Helvetica-Outline;" x="1583" y="1035">32</text>
</g>
<g id="edge64" class="edge"><title>node22&#45;&#45;node24</title>
<path style="fill:none;stroke:black;" d="M1583,955C1583,971 1583,992 1583,1007"/>
<text text-anchor="middle" x="1647" y="986">Rua Quinta dos Orfoes</text>
</g>
<g id="node65" class="node"><title>node28</title>
<ellipse cx="881" cy="1128" rx="21" ry="22" style="fill:gray;stroke:gray;"/>
<text text-anchor="middle" style="font-family:Helvetica-Outline;" x="881" y="1133">35</text>
</g>
<g id="edge70" class="edge"><title>node27&#45;&#45;node28</title>
<path style="fill:none;stroke:black;" d="M881,1053C881,1069 881,1090 881,1105"/>
<text text-anchor="middle" x="939" y="1084">Rua Estrada Nova_1</text>
</g>
<g id="node67" class="node"><title>node29</title>
<ellipse cx="668" cy="1128" rx="21" ry="22" style="fill:gray;stroke:gray;"/>
<text text-anchor="middle" style="font-family:Helvetica-Outline;" x="668" y="1133">37</text>
</g>
<g id="edge72" class="edge"><title>node27&#45;&#45;node29</title>
<path style="fill:none;stroke:black;" d="M860,1036C836,1043 796,1056 763,1071 735,1084 705,1103 686,1116"/>
<text text-anchor="middle" x="830" y="1084">Rua Universidade_0</text>
</g>
<g id="node69" class="node"><title>node31</title>
<ellipse cx="649" cy="1226" rx="21" ry="22" style="fill:gray;stroke:gray;"/>
<text text-anchor="middle" style="font-family:Helvetica-Outline;" x="649" y="1231">37</text>
</g>
<g id="edge74" class="edge"><title>node29&#45;&#45;node31</title>
<path style="fill:none;stroke:black;" d="M664,1150C661,1166 656,1188 653,1204"/>
<text text-anchor="middle" x="720" y="1182">Rua Universidade_1</text>
</g>
<g id="node71" class="node"><title>node30</title>
<ellipse cx="848" cy="1226" rx="21" ry="22" style="fill:gray;stroke:gray;"/>
<text text-anchor="middle" style="font-family:Helvetica-Outline;" x="848" y="1231">38</text>
</g>
<g id="edge76" class="edge"><title>node29&#45;&#45;node30</title>
<path style="fill:none;stroke:black;" d="M689,1134C713,1140 751,1152 780,1169 800,1180 820,1198 832,1210"/>
<text text-anchor="middle" x="845" y="1182">Rua de Barros</text>
</g>
<g id="node80" class="node"><title>node41</title>
<ellipse cx="1251" cy="1226" rx="21" ry="22" style="fill:gray;stroke:gray;"/>
<text text-anchor="middle" style="font-family:Helvetica-Outline;" x="1251" y="1231">43</text>
</g>
<g id="edge86" class="edge"><title>node36&#45;&#45;node41</title>
<path style="fill:none;stroke:black;" d="M1114,1138C1129,1147 1150,1158 1169,1169 1191,1183 1216,1201 1233,1213"/>
<text text-anchor="middle" x="1258" y="1182">Estrada do Bom Jesus_1</text>
</g>
<g id="node84" class="node"><title>node38</title>
<ellipse cx="945" cy="1226" rx="21" ry="22" style="fill:gray;stroke:gray;"/>
<text text-anchor="middle" style="font-family:Helvetica-Outline;" x="945" y="1231">49</text>
</g>
<g id="edge90" class="edge"><title>node36&#45;&#45;node38</title>
<path style="fill:none;stroke:black;" d="M1075,1140C1046,1159 992,1195 964,1214"/>
<text text-anchor="middle" x="1098" y="1182">Avenida Dom Joao II_0</text>
</g>
<g id="node82" class="node"><title>node42</title>
<ellipse cx="1251" cy="1324" rx="21" ry="22" style="fill:gray;stroke:gray;"/>
<text text-anchor="middle" style="font-family:Helvetica-Outline;" x="1251" y="1329">44</text>
</g>
<g id="edge88" class="edge"><title>node41&#45;&#45;node42</title>
<path style="fill:none;stroke:black;" d="M1251,1249C1251,1265 1251,1286 1251,1301"/>
<text text-anchor="middle" x="1283" y="1280">Rua da Luz</text>
</g>
<g id="node86" class="node"><title>node47</title>
<ellipse cx="628" cy="1422" rx="21" ry="22" style="fill:gray;stroke:gray;"/>
<text text-anchor="middle" style="font-family:Helvetica-Outline;" x="628" y="1427">52</text>
</g>
<g id="edge92" class="edge"><title>node38&#45;&#45;node47</title>
<path style="fill:none;stroke:black;" d="M924,1232C907,1238 900,1242 879,1249 815,1273 790,1263 733,1301 693,1330 658,1377 640,1403"/>
<text text-anchor="middle" x="807" y="1329">Avenida Dom Joao II_1</text>
</g>
<g id="edge100" class="edge"><title>node38&#45;&#45;node39</title>
<path style="fill:none;stroke:black;" d="M935,1246C927,1263 916,1287 908,1304"/>
<text text-anchor="middle" x="1006" y="1280">Rua Manuel Ferreira Gomes</text>
</g>
<g id="edge94" class="edge"><title>node47&#45;&#45;node40</title>
<path style="fill:none;stroke:black;" d="M607,1430C558,1448 437,1494 388,1512"/>
<text text-anchor="middle" x="590" y="1476">Avenida Dom Joao II_2</text>
</g>
<g id="node90" class="node"><title>node43</title>
<ellipse cx="367" cy="1618" rx="21" ry="22" style="fill:gray;stroke:gray;"/>
<text text-anchor="middle" style="font-family:Helvetica-Outline;" x="367" y="1623">53</text>
</g>
<g id="edge96" class="edge"><title>node40&#45;&#45;node43</title>
<path style="fill:none;stroke:black;" d="M367,1543C367,1559 367,1580 367,1595"/>
<text text-anchor="middle" x="435" y="1574">Avenida Dom Joao II_3</text>
</g>
<g id="node92" class="node"><title>node46</title>
<ellipse cx="123" cy="1716" rx="21" ry="22" style="fill:gray;stroke:gray;"/>
<text text-anchor="middle" style="font-family:Helvetica-Outline;" x="123" y="1721">49</text>
</g>
<g id="edge98" class="edge"><title>node43&#45;&#45;node46</title>
<path style="fill:none;stroke:black;" d="M345,1623C318,1630 269,1643 229,1659 198,1672 163,1692 142,1704"/>
<text text-anchor="middle" x="306" y="1672">Avenida Dom Joao II_4</text>
</g>
<g id="node98" class="node"><title>node45</title>
<ellipse cx="367" cy="1716" rx="21" ry="22" style="fill:gray;stroke:gray;"/>
<text text-anchor="middle" style="font-family:Helvetica-Outline;" x="367" y="1721">53</text>
</g>
<g id="edge106" class="edge"><title>node43&#45;&#45;node45</title>
<path style="fill:none;stroke:black;" d="M367,1641C367,1657 367,1678 367,1693"/>
<text text-anchor="middle" x="402" y="1672">Rua da Sena</text>
</g>
<g id="node100" class="node"><title>node44</title>
<ellipse cx="510" cy="1716" rx="21" ry="22" style="fill:gray;stroke:gray;"/>
<text text-anchor="middle" style="font-family:Helvetica-Outline;" x="510" y="1721">54</text>
</g>
<g id="edge108" class="edge"><title>node43&#45;&#45;node44</title>
<path style="fill:none;stroke:black;" d="M387,1628C402,1636 423,1648 440,1659 460,1672 480,1689 493,1701"/>
<text text-anchor="middle" x="524" y="1672">Avenida Robert Smith</text>
</g>
<g id="edge104" class="edge"><title>node39&#45;&#45;node47</title>
<path style="fill:none;stroke:black;" d="M877,1332C827,1349 699,1396 649,1414"/>
<text text-anchor="middle" x="869" y="1378">Rua Luis Antonio Correia_1</text>
</g>
</g>
</svg>
